<svg width="19" height="20" viewBox="0 0 19 20" fill="none" xmlns="http://www.w3.org/2000/svg">
<g clip-path="url(#clip0_20_632)">
<path d="M16.3118 0.526367H2.34417C1.06031 0.526367 0.0162354 1.61584 0.0162354 2.95552V17.5304C0.0162354 18.8701 1.06031 19.9596 2.34417 19.9596H16.3118C17.5956 19.9596 18.6397 18.8701 18.6397 17.5304V2.95552C18.6397 1.61584 17.5956 0.526367 16.3118 0.526367Z" fill="#161616"/>
<path d="M15.7299 10.2428H12.82V7.81365C12.82 7.1432 13.3414 7.20636 13.9839 7.20636H15.1479V4.16992H12.82C10.8913 4.16992 9.32806 5.8011 9.32806 7.81365V10.2428H7.00012V13.2792H9.32806V19.9594H12.82V13.2792H14.5659L15.7299 10.2428Z" fill="white"/>
</g>
<defs>
<clipPath id="clip0_20_632">
<rect x="0.0162354" y="0.526367" width="18.6235" height="19.4332" rx="9.31174" fill="white"/>
</clipPath>
</defs>
</svg>
