<svg width="19" height="20" viewBox="0 0 19 20" fill="none" xmlns="http://www.w3.org/2000/svg">
<g clip-path="url(#clip0_20_628)">
<path d="M18.2084 4.85044C17.7033 3.91279 17.1551 3.74032 16.0388 3.67473C14.9237 3.59578 12.1197 3.56299 9.69053 3.56299C7.25668 3.56299 4.45152 3.59578 3.3376 3.67351C2.22368 3.74032 1.67429 3.91157 1.16447 4.85044C0.644177 5.78688 0.376465 7.39983 0.376465 10.2395C0.376465 10.2419 0.376465 10.2432 0.376465 10.2432C0.376465 10.2456 0.376465 10.2468 0.376465 10.2468V10.2492C0.376465 13.0768 0.644177 14.7019 1.16447 15.6286C1.67429 16.5662 2.22252 16.7363 3.33643 16.8152C4.45152 16.8832 7.25668 16.9233 9.69053 16.9233C12.1197 16.9233 14.9237 16.8832 16.04 16.8164C17.1562 16.7375 17.7045 16.5674 18.2096 15.6298C18.7346 14.7031 18.9999 13.078 18.9999 10.2504C18.9999 10.2504 18.9999 10.2468 18.9999 10.2444C18.9999 10.2444 18.9999 10.2419 18.9999 10.2407C18.9999 7.39983 18.7346 5.78688 18.2084 4.85044Z" fill="#161616"/>
<path d="M7.36035 13.8866V6.59912L13.1802 10.2428L7.36035 13.8866Z" fill="white"/>
</g>
<defs>
<clipPath id="clip0_20_628">
<rect width="18.6235" height="19.4332" fill="white" transform="translate(0.376465 0.526367)"/>
</clipPath>
</defs>
</svg>
